# xmcd
#
# Track frame offsets: 
#        150
#        31018
#        68182
#        89916
#        115508
#        137065
#        156858
#        176500
#        191761
#        209720
#        224015
#        246986
#        274056
#        304557
#        326770
#
# Disc length: 4618 seconds
#
# Revision: 1
# Processed by: cddbd v1.5.2PL0 Copyright (c) Steve Scherf et al.
# Submitted via: ExactAudioCopy v0.99pb4
#
DISCID=e612080f
DTITLE=Various Artist - A History of SCHEMA -numero due-
DYEAR=2007
DGENRE=Bossa Nova
TTITLE0=Gerardo Frisina - The Gods of The Yoruba
TTITLE1=Nicola Conte and Gianluca Petrella - New Standards
TTITLE2=Soulstance - Lift Up
TTITLE3=Fragmentorchestra - Carioca
TTITLE4=Paolo Fedreghini and Marco Bianchi - You Are a Star
TTITLE5=Mario Biondi - A Handful Of Soul
TTITLE6=S-Tone Inc. - Some Kind Of Blues
TTITLE7=Gerardo Frisina - Beyond The Moon
TTITLE8=Rosalia De Souza - Voz Da Lapa
TTITLE9=Toco - Barracao
TTITLE10=Les Hommes - Vista Do Mar
TTITLE11=S-Tone Inc. - Beira Do Mar
TTITLE12=The Invisible Session - To The Powerful
TTITLE13=The Dinning Rooms - Hear Us Now
TTITLE14=Cabaret Noir - Ordinary Night (In A Provincial Town)
EXTD=YEAR: 2007
EXTT0=
EXTT1=
EXTT2=
EXTT3=
EXTT4=
EXTT5=
EXTT6=
EXTT7=
EXTT8=
EXTT9=
EXTT10=
EXTT11=
EXTT12=
EXTT13=
EXTT14=
PLAYORDER=
